<?xml version="1.0" standalone="no"?>
<!DOCTYPE svg PUBLIC "-//W3C//DTD SVG 20010904//EN"
 "http://www.w3.org/TR/2001/REC-SVG-20010904/DTD/svg10.dtd">
<svg version="1.0" xmlns="http://www.w3.org/2000/svg"
 width="700.000000pt" height="700.000000pt" viewBox="0 0 700.000000 700.000000"
 preserveAspectRatio="xMidYMid meet">
<metadata>
Created by potrace 1.11, written by Peter Selinger 2001-2013
</metadata>
<g transform="translate(0.000000,700.000000) scale(0.100000,-0.100000)"
fill="#000000" stroke="none">
<path d="M1748 5249 l-1748 -1749 878 -877 c482 -483 1270 -1271 1749 -1751
l873 -872 1750 1750 1750 1750 -1750 1750 c-962 962 -1751 1750 -1752 1749 -2
0 -789 -788 -1750 -1750z m3152 -354 l1394 -1395 -1397 -1397 -1397 -1397
-1397 1397 -1397 1397 1394 1395 c767 767 1397 1395 1400 1395 3 0 633 -628
1400 -1395z"/>
<path d="M2186 4120 c-2 -3 -3 -20 -2 -39 1 -33 2 -34 50 -38 58 -5 80 -15
103 -49 15 -23 16 -74 16 -507 0 -320 -4 -491 -11 -509 -15 -36 -52 -59 -99
-62 -51 -3 -60 -10 -61 -45 0 -19 5 -30 16 -33 29 -6 594 -1 644 6 239 33 400
185 455 426 18 80 24 289 10 371 -47 288 -243 466 -527 478 -122 5 -592 6
-594 1z m589 -95 c65 -7 161 -53 203 -96 58 -60 109 -167 127 -269 4 -19 8
-89 10 -155 9 -281 -74 -466 -242 -542 -51 -22 -75 -26 -198 -31 l-140 -4 0
548 0 549 50 5 c56 6 116 4 190 -5z"/>
<path d="M3527 4122 c-37 -3 -38 -4 -35 -39 3 -34 5 -36 46 -39 23 -2 55 -9
70 -16 55 -27 55 -31 55 -548 -1 -313 -4 -484 -11 -502 -17 -43 -62 -64 -139
-67 -19 -1 -23 -7 -23 -35 0 -19 6 -36 13 -38 10 -3 486 -2 509 1 3 1 6 17 5
36 -1 30 -4 35 -26 36 -60 2 -106 21 -127 55 -16 23 -18 55 -19 260 l-1 234
26 1 c73 4 537 4 548 1 16 -5 17 -436 2 -478 -12 -32 -46 -63 -69 -65 -9 -1
-20 -2 -26 -4 -5 -1 -23 -3 -38 -3 -26 -2 -28 -5 -25 -39 l3 -37 248 0 c137
-1 253 2 258 5 12 7 19 43 11 56 -4 6 -26 13 -50 17 -66 9 -96 27 -108 66 -8
25 -11 179 -10 515 1 521 0 512 57 535 14 6 45 12 68 13 28 1 41 7 42 17 0 8
2 23 4 33 2 10 -3 21 -11 24 -8 3 -127 6 -264 7 l-250 1 0 -40 0 -40 45 -2
c61 -3 100 -26 114 -64 7 -19 11 -110 11 -229 l0 -196 -292 0 -293 1 0 194 c0
106 4 207 10 224 17 51 53 69 151 76 18 1 13 71 -6 72 -58 2 -442 3 -473 1z"/>
</g>
</svg>
