<svg width="70" height="70" viewBox="0 0 70 70" version="1.1" xmlns="http://www.w3.org/2000/svg" xmlns:xlink="http://www.w3.org/1999/xlink">
<title>Group</title>
<desc>Created using Figma</desc>
<g id="Canvas" transform="translate(-3619 1232)">
<g id="Group">
<g id="Canvas">
<g id="DH">
<g id="Vector">
<use xlink:href="#path0_fill" transform="matrix(1 -5.55112e-17 5.55112e-17 1 3640.83 -1203.22)" fill="#147B40"/>
</g>
</g>
<g id="Rectangle 8">
<mask id="mask0_alpha" mask-type="alpha">
<g id="mask0 outline ins">
<g id="Vector">
<use xlink:href="#path1_fill" transform="matrix(0.707107 -0.707107 0.707107 0.707107 3619 -1197)" fill="#FFFFFF"/>
</g>
</g>
</mask>
<g id="Group" mask="url(#mask0_alpha)">
<g id="Vector">
<use xlink:href="#path2_fill" transform="matrix(0.707107 -0.707107 0.707107 0.707107 3611.93 -1197)" fill="#147B40"/>
</g>
</g>
</g>
</g>
</g>
</g>
<defs>
<path id="path0_fill" d="M 11.3731 6.40721C 11.3731 7.39161 11.25 8.28221 11.004 9.07911C 10.7579 9.87011 10.3916 10.5469 9.90525 11.1094C 9.41895 11.666 8.80957 12.0967 8.07715 12.4014C 7.34472 12.7002 6.48925 12.8496 5.51074 12.8496L -5.79071e-09 12.8496L -5.79071e-09 12.0937L 0.228515 12.0937C 0.433593 12.0937 0.624023 12.0791 0.799803 12.0498C 0.981443 12.0205 1.13965 11.9619 1.27441 11.874C 1.40918 11.7803 1.51465 11.6484 1.59082 11.4785C 1.66699 11.3086 1.70507 11.083 1.70507 10.8017L 1.70507 1.97754C 1.70507 1.71387 1.66406 1.50293 1.58203 1.34473C 1.50586 1.18067 1.40039 1.05469 1.26562 0.9668C 1.13086 0.87891 0.972653 0.82324 0.791013 0.79981C 0.615233 0.77051 0.427733 0.75586 0.228515 0.75586L -5.79071e-09 0.75586L -5.79071e-09 1.48163e-07L 5.51074 1.48163e-07C 6.43652 1.48163e-07 7.26269 0.14356 7.98925 0.43066C 8.71582 0.71191 9.32815 1.125 9.82615 1.66992C 10.3301 2.21484 10.7139 2.88574 10.9776 3.68262C 11.2413 4.47951 11.3731 5.38771 11.3731 6.40721ZM 5.08886 11.9355C 5.80371 11.9355 6.42773 11.8154 6.96093 11.5752C 7.5 11.3291 7.94824 10.9717 8.30566 10.5029C 8.66308 10.0342 8.92968 9.45701 9.10547 8.77151C 9.28711 8.08591 9.37795 7.29781 9.37795 6.40721C 9.37795 4.62011 9.02051 3.25488 8.30566 2.31152C 7.59668 1.36816 6.53027 0.89649 5.10644 0.89649L 3.52441 0.89649L 3.52441 11.9355L 5.08886 11.9355ZM 20.7598 12.8496L 20.7598 12.0937L 20.9971 12.0937C 21.2022 12.0937 21.3926 12.0791 21.5684 12.0498C 21.75 12.0205 21.9053 11.9619 22.0342 11.874C 22.169 11.7803 22.2745 11.6484 22.3506 11.4785C 22.4327 11.3086 22.4737 11.083 22.4737 10.8017L 22.4737 6.58301L 16.6202 6.58301L 16.6202 10.8017C 16.6202 11.083 16.6583 11.3086 16.7344 11.4785C 16.8165 11.6484 16.9219 11.7803 17.0508 11.874C 17.1856 11.9619 17.3438 12.0205 17.5254 12.0498C 17.7071 12.0791 17.8975 12.0937 18.0967 12.0937L 18.334 12.0937L 18.334 12.8496L 13.0957 12.8496L 13.0957 12.0937L 13.3243 12.0937C 13.5293 12.0937 13.7198 12.0791 13.8956 12.0498C 14.0772 12.0205 14.2354 11.9619 14.3702 11.874C 14.5049 11.7803 14.6104 11.6484 14.6866 11.4785C 14.7627 11.3086 14.8008 11.083 14.8008 10.8017L 14.8008 1.97754C 14.8008 1.71387 14.7598 1.50293 14.6778 1.34473C 14.6016 1.18067 14.4961 1.05469 14.3614 0.9668C 14.2266 0.87891 14.0684 0.82324 13.8868 0.79981C 13.711 0.77051 13.5235 0.75586 13.3243 0.75586L 13.0957 0.75586L 13.0957 1.48163e-07L 18.334 1.48163e-07L 18.334 0.75586L 18.0967 0.75586C 17.8975 0.75586 17.7071 0.77051 17.5254 0.79981C 17.3438 0.8291 17.1856 0.89063 17.0508 0.98438C 16.9219 1.07227 16.8165 1.20117 16.7344 1.37109C 16.6583 1.54102 16.6202 1.7666 16.6202 2.04785L 16.6202 5.68651L 22.4737 5.68651L 22.4737 2.04785C 22.4737 1.7666 22.4327 1.54102 22.3506 1.37109C 22.2745 1.20117 22.169 1.07227 22.0342 0.98438C 21.9053 0.89063 21.75 0.8291 21.5684 0.79981C 21.3926 0.77051 21.2022 0.75586 20.9971 0.75586L 20.7598 0.75586L 20.7598 1.48163e-07L 25.9981 1.48163e-07L 25.9981 0.75586L 25.7696 0.75586C 25.5645 0.75586 25.3711 0.77051 25.1895 0.79981C 25.0137 0.8291 24.8584 0.89063 24.7237 0.98438C 24.5889 1.07227 24.4834 1.20117 24.4073 1.37109C 24.3311 1.54102 24.293 1.7666 24.293 2.04785L 24.293 10.8896C 24.293 11.1533 24.3311 11.3672 24.4073 11.5312C 24.4893 11.6894 24.5977 11.8096 24.7325 11.8916C 24.8672 11.9736 25.0225 12.0293 25.1983 12.0586C 25.3799 12.082 25.5704 12.0937 25.7696 12.0937L 25.9981 12.0937L 25.9981 12.8496L 20.7598 12.8496Z"/>
<path id="path1_fill" d="M 0 0L 49.4975 0L 49.4975 49.4975L 0 49.4975L 0 0Z"/>
<path id="path2_fill" d="M 5 5L 5 0L 0 0L 0 5L 5 5ZM 54.4975 5L 59.4975 5L 59.4975 0L 54.4975 0L 54.4975 5ZM 54.4975 54.4975L 54.4975 59.4975L 59.4975 59.4975L 59.4975 54.4975L 54.4975 54.4975ZM 5 54.4975L 0 54.4975L 0 59.4975L 5 59.4975L 5 54.4975ZM 5 10L 54.4975 10L 54.4975 0L 5 0L 5 10ZM 49.4975 5L 49.4975 54.4975L 59.4975 54.4975L 59.4975 5L 49.4975 5ZM 54.4975 49.4975L 5 49.4975L 5 59.4975L 54.4975 59.4975L 54.4975 49.4975ZM 10 54.4975L 10 5L 0 5L 0 54.4975L 10 54.4975Z"/>
</defs>
</svg>
